<?xml version="1.0" encoding="UTF-8" standalone="no"?>
<!-- Created with Inkscape (http://www.inkscape.org/) -->

<svg
   width="150mm"
   height="150mm"
   viewBox="0 0 150 150"
   version="1.1"
   id="svg5"
   xml:space="preserve"
   inkscape:version="1.2.2 (732a01da63, 2022-12-09)"
   sodipodi:docname="teaching_network.svg"
   xmlns:inkscape="http://www.inkscape.org/namespaces/inkscape"
   xmlns:sodipodi="http://sodipodi.sourceforge.net/DTD/sodipodi-0.dtd"
   xmlns="http://www.w3.org/2000/svg"
   xmlns:svg="http://www.w3.org/2000/svg"><sodipodi:namedview
     id="namedview7"
     pagecolor="#ffffff"
     bordercolor="#000000"
     borderopacity="0.25"
     inkscape:showpageshadow="2"
     inkscape:pageopacity="0.0"
     inkscape:pagecheckerboard="0"
     inkscape:deskcolor="#d1d1d1"
     inkscape:document-units="mm"
     showgrid="false"
     inkscape:zoom="0.50646226"
     inkscape:cx="-251.7463"
     inkscape:cy="279.38903"
     inkscape:window-width="1920"
     inkscape:window-height="991"
     inkscape:window-x="-9"
     inkscape:window-y="-9"
     inkscape:window-maximized="1"
     inkscape:current-layer="g3295" /><defs
     id="defs2"><marker
       style="overflow:visible"
       id="TriangleStart"
       refX="0"
       refY="0"
       orient="auto-start-reverse"
       inkscape:stockid="TriangleStart"
       markerWidth="2.3239999"
       markerHeight="2.6867051"
       viewBox="0 0 5.3244081 6.1553851"
       inkscape:isstock="true"
       inkscape:collect="always"
       preserveAspectRatio="xMidYMid"><path
         transform="scale(0.5)"
         style="fill:context-stroke;fill-rule:evenodd;stroke:context-stroke;stroke-width:1pt"
         d="M 5.77,0 -2.88,5 V -5 Z"
         id="path135" /></marker></defs><g
     inkscape:label="Layer 1"
     inkscape:groupmode="layer"
     id="layer1"
     transform="translate(-15.964691,-105.08115)"><g
       id="g3295"
       transform="matrix(2.0587703,0,0,2.0587703,-17.432326,-238.64323)"><path
         style="fill:#808080;stroke-width:0.0658291"
         d="m 63.879767,237.42543 c -0.835011,-0.27648 -1.510544,-0.86229 -1.879898,-1.63021 -0.458487,-0.95323 -0.423171,-2.16115 0.08905,-3.04579 l 0.165539,-0.28589 -1.638628,-1.63962 c -0.901246,-0.90179 -1.661797,-1.63961 -1.690116,-1.63961 -0.05873,0 -4.074216,2.0983 -4.139289,2.163 -0.02339,0.0233 -0.01087,0.23377 0.02781,0.46781 0.195371,1.1818 -0.390517,2.51401 -1.386789,3.15331 -1.247573,0.80057 -2.990677,0.6281 -4.0172,-0.39747 -0.706718,-0.70607 -0.969047,-1.42777 -0.919982,-2.53099 0.02663,-0.59879 0.05429,-0.7189 0.270232,-1.17362 0.697227,-1.46816 2.53977,-2.20896 4.113334,-1.65377 0.378234,0.13345 0.954999,0.52387 1.215365,0.82269 l 0.213136,0.24462 1.955843,-1.02505 1.955844,-1.02506 -2.288169,-2.29063 -2.288169,-2.29063 -0.490542,0.23152 c -1.087783,0.51339 -2.212178,0.43979 -3.206101,-0.20986 -1.322326,-0.8643 -1.784125,-2.6754 -1.067748,-4.18753 0.189744,-0.40052 0.78057,-1.04584 1.162372,-1.26959 0.961096,-0.56324 2.377859,-0.57994 3.301066,-0.0389 l 0.286824,0.16808 2.326868,-2.32617 2.32687,-2.32618 -1.952512,-1.02527 -1.95251,-1.02526 -0.220689,0.24427 c -0.121376,0.13436 -0.377235,0.34819 -0.56857,0.47519 -1.249294,0.82923 -2.783137,0.79896 -3.938343,-0.0777 -0.412247,-0.31286 -0.928927,-1.08159 -1.100657,-1.63759 -0.504456,-1.63324 0.366628,-3.46218 1.907968,-4.00599 1.9592,-0.69125 3.992571,0.53153 4.291218,2.58055 0.05556,0.38117 0.05653,0.61489 0.0036,0.87856 -0.03962,0.19757 -0.05216,0.37874 -0.02788,0.40259 0.06818,0.0669 4.210773,2.22775 4.270954,2.22775 0.02922,0 0.774345,-0.72167 1.655835,-1.60372 l 1.602714,-1.60371 -0.23572,-0.49008 c -1.048261,-2.17942 0.4724,-4.66282 2.85519,-4.66282 0.886068,0 1.635345,0.30822 2.254565,0.92744 0.706178,0.70618 1.069143,1.83874 0.908659,2.83529 -0.03628,0.22534 -0.05931,0.41486 -0.05116,0.42114 0.0082,0.006 1.728459,0.89106 3.822898,1.96618 l 3.808065,1.95476 0.375651,-0.35832 c 0.672271,-0.64123 1.521987,-0.94559 2.448583,-0.87707 1.732083,0.1281 2.955915,1.43831 2.955915,3.16455 0,1.51774 -0.872234,2.67602 -2.335486,3.1014 -0.809843,0.23543 -2.006683,0.0409 -2.660054,-0.43244 -0.148321,-0.10744 -0.298465,-0.19535 -0.333651,-0.19535 -0.08014,0 -4.874366,3.94958 -4.874366,4.0156 0,0.0615 4.791331,4.01559 4.865818,4.01559 0.0305,0 0.22936,-0.10476 0.441933,-0.23279 1.010808,-0.60884 2.204549,-0.65614 3.17867,-0.12595 0.734176,0.39959 1.196083,0.96784 1.484075,1.82574 0.218329,0.6504 0.233785,1.59512 0.03653,2.23372 -0.696066,2.2536 -3.546972,2.97081 -5.271273,1.3261 l -0.373107,-0.35588 -3.794867,1.92698 -3.794857,1.92699 0.05008,0.36206 c 0.213137,1.5408 -0.45874,2.83289 -1.805709,3.47257 -0.470344,0.22336 -0.551893,0.24055 -1.232984,0.2599 -0.57153,0.0162 -0.807827,-0.005 -1.092129,-0.0994 z m 1.418795,-2.11106 c 0.529812,-0.24067 0.843873,-0.83182 0.698932,-1.3156 -0.214186,-0.71489 -0.998863,-1.06846 -1.642349,-0.74004 -0.301676,0.15397 -0.440217,0.30351 -0.570874,0.61622 -0.132761,0.31774 -0.125897,0.54798 0.02633,0.88327 0.133247,0.29348 0.317901,0.44544 0.712331,0.58621 0.33011,0.11782 0.461251,0.11274 0.775623,-0.0301 z m -13.135786,-2.27116 c 0.482426,-0.31926 0.653105,-0.91753 0.402077,-1.40938 -0.153973,-0.30167 -0.303514,-0.44021 -0.616223,-0.57087 -0.463184,-0.19353 -0.903656,-0.0935 -1.277091,0.29006 -0.430747,0.44241 -0.421542,1.14776 0.02042,1.56458 0.411255,0.38786 0.998714,0.43803 1.47082,0.12561 z m 19.150362,-2.70689 3.75258,-1.90905 -0.04648,-0.26332 c -0.02555,-0.14482 -0.04415,-0.5003 -0.04124,-0.78995 0.0039,-0.41695 0.0426,-0.61575 0.184756,-0.95452 0.09874,-0.23534 0.190779,-0.45752 0.204534,-0.49373 0.01375,-0.0362 -1.129873,-1.00716 -2.541381,-2.15768 l -2.566381,-2.09186 -1.263988,1.04505 c -0.695196,0.57477 -1.257935,1.08657 -1.250528,1.13733 0.0074,0.0507 0.07822,0.27002 0.157361,0.48726 0.191299,0.52506 0.194388,1.40306 0.007,1.99122 -0.418575,1.31385 -1.634466,2.18894 -3.041412,2.18894 -0.849634,0 -1.589568,-0.2947 -2.217621,-0.88324 l -0.382641,-0.35856 -1.152015,0.59544 c -0.633606,0.32749 -1.165473,0.60802 -1.181924,0.62338 -0.01645,0.0154 0.661351,0.71968 1.506225,1.56512 l 1.536134,1.53718 0.481637,-0.22873 c 1.243061,-0.59032 2.680278,-0.37864 3.591264,0.52893 0.194354,0.19363 0.388965,0.34931 0.432467,0.34595 0.04352,-0.003 1.767749,-0.86518 3.831666,-1.91516 z m 7.417685,-1.90896 c 0.362498,-0.21244 0.656664,-0.7654 0.584752,-1.09921 -0.152873,-0.70965 -0.787844,-1.14295 -1.423913,-0.97167 -0.38283,0.10308 -0.562,0.23589 -0.749229,0.55538 -0.215502,0.36772 -0.221229,0.84873 -0.01375,1.15517 0.339276,0.50114 1.07828,0.66734 1.602151,0.36033 z m -17.069402,-2.26108 c -0.0076,-0.0961 -0.02239,-0.41005 -0.03291,-0.6977 l -0.01911,-0.523 -3.617228,-1.19973 c -3.290916,-1.0915 -3.624647,-1.18982 -3.699477,-1.08982 -0.09162,0.12244 -0.05325,0.1639 3.09678,3.34593 l 1.639457,1.65611 1.32315,-0.65854 c 1.246304,-0.62031 1.322346,-0.6687 1.309348,-0.83325 z m 3.85548,0.13948 c 0.586817,-0.43457 0.684453,-1.18899 0.224605,-1.73549 -0.401866,-0.47759 -1.194349,-0.52777 -1.655741,-0.10483 -0.211048,0.19346 -0.399858,0.61879 -0.399858,0.90077 0,0.89439 1.117588,1.46787 1.830994,0.93955 z m -3.326844,-2.73567 c 0.219348,-0.37429 0.737609,-0.85149 1.153811,-1.0624 1.100971,-0.5579 2.523417,-0.44967 3.476486,0.26453 l 0.207925,0.15582 1.174493,-0.91813 c 0.645968,-0.50497 1.174487,-0.94957 1.174487,-0.98799 0,-0.0384 -0.527611,-0.5112 -1.172467,-1.05063 l -1.172472,-0.98077 -0.47354,0.25542 c -1.081524,0.58337 -2.185299,0.6021 -3.212673,0.0545 -0.355503,-0.18948 -1.017912,-0.80994 -1.247717,-1.16869 l -0.101072,-0.15779 -2.201761,0.706 c -1.210967,0.3883 -2.83866,0.91086 -3.617094,1.16125 l -1.415332,0.45526 v 0.59624 0.59625 l 3.554788,1.17568 c 1.955135,0.64663 3.589004,1.17834 3.63082,1.18158 0.04182,0.003 0.15041,-0.12102 0.241318,-0.27614 z M 51.94863,221.97348 c 0.312709,-0.13066 0.46225,-0.2692 0.616223,-0.57087 0.158585,-0.31073 0.158585,-0.64905 0,-0.95978 -0.153973,-0.30168 -0.303514,-0.44021 -0.616223,-0.57087 -1.062067,-0.44376 -2.074257,0.8591 -1.366479,1.7589 0.170329,0.21653 0.635234,0.44375 0.908082,0.44382 0.118834,3e-5 0.325113,-0.0455 0.458397,-0.1012 z m 20.867653,-3.94725 c 1.78135,-1.49519 2.498511,-2.1352 2.471116,-2.20529 -0.308364,-0.78885 -0.391156,-1.4521 -0.267082,-2.13969 l 0.04755,-0.26355 -1.432248,-0.72389 c -0.787733,-0.39814 -2.501761,-1.26826 -3.808939,-1.9336 l -2.376696,-1.20971 -0.241226,0.26701 c -0.667151,0.73845 -1.878767,1.13158 -2.900368,0.94106 -0.217236,-0.0405 -0.60914,-0.1753 -0.8709,-0.29952 l -0.475924,-0.22585 -1.466016,1.51012 c -0.806307,0.83056 -1.473545,1.5327 -1.482748,1.56032 -0.0092,0.0276 0.494468,0.3053 1.11927,0.6171 l 1.136002,0.5669 0.323226,-0.28442 c 1.823678,-1.60476 4.608758,-0.92124 5.318056,1.30515 0.187378,0.58816 0.184289,1.46616 -0.007,1.99122 -0.07914,0.21724 -0.149958,0.43645 -0.157361,0.48714 -0.01258,0.0861 2.444557,2.18717 2.524813,2.15896 0.02025,-0.007 1.166133,-0.96086 2.546481,-2.11946 z m -14.33379,-0.0863 3.126897,-1.04359 0.04529,-0.52124 c 0.02491,-0.28667 0.05453,-0.61901 0.06583,-0.73851 l 0.02055,-0.21727 -1.2632,-0.64285 -1.263199,-0.64285 -2.475603,2.47625 c -1.788381,1.78885 -2.464394,2.50544 -2.435234,2.58144 0.04983,0.12986 -0.0451,0.15829 4.178679,-1.25138 z m 6.867901,-0.36555 c 0.650913,-0.27197 0.890911,-1.17725 0.461397,-1.74037 -0.258397,-0.33878 -0.526766,-0.47337 -0.943845,-0.47337 -0.60353,0 -1.07901,0.41276 -1.160518,1.00743 -0.06123,0.4467 0.20302,0.96868 0.586457,1.15848 0.319579,0.15819 0.746168,0.1775 1.056509,0.0478 z M 78.76429,215.4556 c 0.255113,-0.13192 0.506307,-0.45733 0.588414,-0.76226 0.238031,-0.88398 -0.691412,-1.69918 -1.561451,-1.36953 -0.605274,0.22933 -0.92429,1.05867 -0.629565,1.63667 0.282387,0.55379 1.037823,0.78718 1.602602,0.49512 z m -26.81566,-4.67312 c 0.33864,-0.14149 0.47271,-0.27659 0.650819,-0.65578 0.189064,-0.40252 0.195018,-0.61975 0.02606,-0.95093 -0.432921,-0.84859 -1.584399,-0.87053 -2.0517,-0.0391 -0.310565,0.55257 -0.106406,1.3476 0.41195,1.60417 0.340204,0.1684 0.629501,0.1809 0.962866,0.0416 z m 13.448501,-2.13824 c 0.806719,-0.41156 0.844494,-1.6006 0.06441,-2.02743 -0.336157,-0.18392 -0.564779,-0.22231 -0.85639,-0.14379 -0.504597,0.13588 -0.917395,0.66527 -0.920692,1.18075 -0.0052,0.81728 0.95905,1.37494 1.71267,0.99047 z"
         id="path319" /><path
         id="path2558"
         style="fill:none;stroke:#000000;stroke-width:2;stroke-linecap:round"
         d="m 52.563163,197.66833 h 25.564848 c 1.664151,0 3.003951,-1.33929 3.003951,-3.00344 v -21.41936 c 0,-1.66415 -1.3398,-3.00395 -3.003951,-3.00395 H 39.827507 c -1.664151,0 -3.003951,1.3398 -3.003951,3.00395 v 3.23133"
         sodipodi:nodetypes="cssssssc" /><g
         id="g6593"><g
           id="g6578"><circle
             style="fill:none;stroke:#1a1a1a;stroke-width:2.91436;stroke-linecap:round;stroke-dasharray:none"
             id="path4801"
             cx="46.448933"
             cy="178.25258"
             r="3.3642926" /><circle
             style="fill:none;stroke:#1a1a1a;stroke-width:2.91436;stroke-linecap:round;stroke-dasharray:none"
             id="path4801-9"
             cx="71.51371"
             cy="178.25258"
             r="3.3642926" /><path
             style="fill:none;stroke:#1a1a1a;stroke-width:2.42863;stroke-linecap:square;stroke-dasharray:none;marker-end:url(#TriangleStart)"
             d="m 53.932901,178.18811 h 7.974741"
             id="path5009"
             sodipodi:nodetypes="cc" /></g><g
           id="g6583"><circle
             style="fill:none;stroke:#1a1a1a;stroke-width:2.91436;stroke-linecap:round;stroke-dasharray:none"
             id="path4801-4"
             cx="46.448933"
             cy="189.82326"
             r="3.3642926" /><circle
             style="fill:none;stroke:#1a1a1a;stroke-width:2.91436;stroke-linecap:round;stroke-dasharray:none"
             id="path4801-5"
             cx="71.51371"
             cy="189.82326"
             r="3.3642926" /><path
             style="fill:none;stroke:#1a1a1a;stroke-width:2.42863;stroke-linecap:square;stroke-dasharray:none;marker-end:url(#TriangleStart)"
             d="m 53.932901,189.49743 h 7.974741"
             id="path5756"
             sodipodi:nodetypes="cc" /></g></g><g
         id="g3289"
         style="fill:#333333;stroke:#ffffff;stroke-width:0.485727;stroke-linecap:round;stroke-linejoin:round;stroke-dasharray:none"
         transform="translate(6.9488927,2.2854237)"><path
           style="fill:#333333;stroke:#ffffff;stroke-width:0.485727;stroke-linecap:round;stroke-linejoin:round;stroke-dasharray:none"
           d="m 26.016571,185.65368 c -1.20298,-0.82709 -1.87897,-2.17119 -1.87897,-3.73606 0,-2.35693 1.52735,-4.05955 3.87322,-4.31767 4.28598,-0.4716 6.49345,4.68277 3.29425,7.69197 -0.72202,0.67914 -1.07602,0.79877 -2.61227,0.88278 -1.52439,0.0834 -1.90492,0.009 -2.67623,-0.52102 z"
           id="path345" /><path
           style="fill:#333333;stroke:#ffffff;stroke-width:0.485727;stroke-linecap:round;stroke-linejoin:round;stroke-dasharray:none"
           d="m 23.451011,224.82762 c -0.47742,-0.52736 -0.51101,-1.24859 -0.63632,-13.66341 l -0.13229,-13.10666 -1.15666,3.01393 c -1.29818,3.38267 -1.88509,4.20455 -3.00253,4.20455 -0.87529,0 -2.05852,-1.03742 -2.05852,-1.80486 0,-0.59578 5.12943,-13.65085 5.71415,-14.54324 0.22001,-0.33577 0.7805,-0.8425 1.24554,-1.12604 0.74646,-0.45515 1.3502,-0.51563 5.15349,-0.51654 3.12315,-7.5e-4 4.55509,0.10226 5.20644,0.37441 0.61279,0.25604 1.4707,1.13937 2.69818,2.77813 0.98984,1.3215 1.86163,2.40211 1.93731,2.40136 0.0757,-8e-4 0.55432,-0.65333 1.06364,-1.45017 0.90653,-1.41828 2.00791,-2.18793 2.73287,-1.90974 0.21454,0.0823 2.31735,-1.63448 5.18042,-4.22947 4.67207,-4.23461 4.83495,-4.35386 5.33217,-3.90389 0.28208,0.25528 0.51287,0.56118 0.51287,0.67978 0,0.1186 -2.14312,2.14747 -4.7625,4.5086 -3.92498,3.53802 -4.7625,4.41788 -4.7625,5.0033 0,0.99285 -3.64703,6.55709 -4.43177,6.7615 -1.16365,0.30311 -1.8984,-0.15563 -3.49747,-2.18366 l -1.583,-2.00763 c -0.04833,10.08838 -0.01851,29.94489 -0.145,30.26514 -0.43058,1.09016 -2.737799,0.97629 -3.30729,0.48217 -0.50746,-0.50745 -0.52917,-0.88194 -0.52917,-9.12812 v -8.59896 h -1.71979 -1.71979 v 8.43099 c 0,8.12877 -0.01968,8.45598 -0.54837,9.12812 -0.696254,0.88517 -2.0481,0.95333 -2.78406,0.1404 -1.1e-5,-1e-5 -3.9e-5,2e-5 -5e-5,1e-5 z"
           id="path333"
           sodipodi:nodetypes="sscsssssssscssssssssscscscccssss" /></g></g></g></svg>
